<svg width="153" height="64" viewBox="0 0 153 64" fill="none" xmlns="http://www.w3.org/2000/svg">
<path d="M1.73828 54.1914L1.71875 52.209V40.7441C1.71875 40.347 1.59505 40.0247 1.34766 39.7773L1.54297 39.582C1.79036 39.8294 2.11263 39.9531 2.50977 39.9531H10.9375C12.2852 39.9531 13.1966 39.9922 13.6719 40.0703C14.1536 40.1484 14.5736 40.2363 14.9316 40.334C15.2897 40.4251 15.5892 40.5358 15.8301 40.666C16.071 40.7962 16.3184 40.9622 16.5723 41.1641C16.8262 41.3659 17.028 41.5938 17.1777 41.8477C17.5228 42.4336 17.6953 43.0911 17.6953 43.8203C17.6953 44.543 17.6139 45.1615 17.4512 45.6758C17.2949 46.1836 17.041 46.6393 16.6895 47.043C15.9603 47.8893 14.7201 48.3125 12.9688 48.3125H7.58789C7.18424 48.3125 6.85872 48.1888 6.61133 47.9414L6.40625 48.127C6.66667 48.3874 6.79688 48.7129 6.79688 49.1035V52.209C6.79688 52.7103 6.79036 53.3255 6.77734 54.0547L6.33789 54.0938C6.25326 53.3646 6.14258 53 6.00586 53H2.50977C2.43164 53 2.36654 53.1562 2.31445 53.4688C2.26888 53.7878 2.24609 54.0905 2.24609 54.377C2.24609 54.6699 2.30794 55.1647 2.43164 55.8613C2.55534 56.5579 2.61719 57.0462 2.61719 57.3262C2.61719 57.9251 2.39909 58.2246 1.96289 58.2246C1.52669 58.2246 1.30859 57.9186 1.30859 57.3066C1.30859 57.0137 1.38021 56.4961 1.52344 55.7539C1.66667 55.0117 1.73828 54.4909 1.73828 54.1914ZM6.79688 44.0059V44.582C6.79688 44.9661 6.66667 45.2884 6.40625 45.5488L6.61133 45.7539C6.86523 45.5 7.19076 45.373 7.58789 45.373H10.752C11.4095 45.373 11.8034 45.3372 11.9336 45.2656C12.0638 45.1875 12.1745 45.1094 12.2656 45.0312C12.4219 44.888 12.5 44.6829 12.5 44.416C12.5 44.1491 12.4707 43.9538 12.4121 43.8301C12.36 43.6999 12.2819 43.599 12.1777 43.5273C12.0736 43.4557 11.9694 43.3971 11.8652 43.3516C11.7611 43.306 11.6341 43.2734 11.4844 43.2539C11.276 43.2279 11.0449 43.2148 10.791 43.2148H7.58789C7.18424 43.2148 6.85872 43.0911 6.61133 42.8438L6.40625 43.0293C6.66667 43.2897 6.79688 43.6152 6.79688 44.0059ZM4.45312 53.6641L4.70703 55.9785C4.70703 56.3757 4.56055 56.5742 4.26758 56.5742C3.98112 56.5742 3.83789 56.3724 3.83789 55.9688C3.83789 55.7344 3.89648 55.3242 4.01367 54.7383C4.13737 54.1589 4.19922 53.778 4.19922 53.5957C4.19922 53.4199 4.19596 53.1921 4.18945 52.9121C4.18945 52.6322 4.18945 52.3978 4.18945 52.209L4.62891 52.7266C4.58333 52.7266 4.54102 52.8307 4.50195 53.0391C4.4694 53.2539 4.45312 53.4622 4.45312 53.6641ZM35.8398 56.2031L36.0547 54.1816C36.0547 53.3613 35.7194 52.7363 35.0488 52.3066C34.3848 51.8704 33.6849 51.6784 32.9492 51.7305C32.2135 51.776 31.6992 52.0234 31.4062 52.4727C31.2565 52.6875 31.1816 52.9414 31.1816 53.2344L31.1328 55.8516C31.1328 56.2096 31.1882 56.7402 31.2988 57.4434C31.4095 58.153 31.4648 58.6868 31.4648 59.0449C31.4648 59.6764 31.2858 59.9922 30.9277 59.9922C30.5697 59.9922 30.3906 59.6862 30.3906 59.0742C30.3906 58.6706 30.4492 58.0911 30.5664 57.3359C30.6836 56.5807 30.7487 56.0078 30.7617 55.6172C30.7812 55.2266 30.791 54.3932 30.791 53.1172C30.791 52.7786 30.6868 52.388 30.4785 51.9453C30.2702 51.5026 29.9414 50.8939 29.4922 50.1191C29.043 49.3444 28.6751 48.6608 28.3887 48.0684L28.0957 47.9023C27.9395 48.1888 27.6628 48.332 27.2656 48.332L26.4453 48.3613C25.8854 48.3613 25.4655 48.2246 25.1855 47.9512L24.9805 48.1465C25 48.3874 25.0098 48.9017 25.0098 49.6895L25 52.082C25 52.7982 25.013 53.3255 25.0391 53.6641L25.2246 55.0996C25.2246 55.3665 25.1335 55.5 24.9512 55.5C24.7689 55.5 24.6777 55.3763 24.6777 55.1289L24.834 53.918C24.834 53.625 24.7461 53.3906 24.5703 53.2148C24.401 53.0456 24.1764 52.9609 23.8965 52.9609C23.623 52.9609 23.3789 53.0814 23.1641 53.3223C22.9557 53.5697 22.8516 53.8887 22.8516 54.2793C22.8516 54.6699 22.9232 55.1973 23.0664 55.8613C23.2096 56.5319 23.2812 57.0137 23.2812 57.3066C23.2812 57.9186 23.0632 58.2246 22.627 58.2246C22.1908 58.2246 21.9727 57.9251 21.9727 57.3262C21.9727 57.0462 22.0345 56.5579 22.1582 55.8613C22.2884 55.1647 22.3535 54.6113 22.3535 54.2012C22.3535 53.791 22.2591 53.4525 22.0703 53.1855C21.8815 52.9251 21.6667 52.7949 21.4258 52.7949C21.1849 52.7949 20.9798 52.8763 20.8105 53.0391C20.6413 53.2083 20.5566 53.4167 20.5566 53.6641L20.8203 55.9785C20.8203 56.3757 20.6738 56.5742 20.3809 56.5742C20.0879 56.5742 19.9414 56.3724 19.9414 55.9688C19.9414 55.7344 20.0033 55.3242 20.127 54.7383C20.2507 54.1589 20.3092 53.7064 20.3027 53.3809C20.2962 53.0553 20.293 48.8431 20.293 40.7441C20.293 40.3405 20.1693 40.0182 19.9219 39.7773L20.1172 39.582C20.3711 39.8294 20.6934 39.9531 21.084 39.9531H29.834C31.2012 39.9531 32.1191 39.9954 32.5879 40.0801C33.0632 40.1582 33.4766 40.2428 33.8281 40.334C34.1862 40.4251 34.4857 40.5391 34.7266 40.6758C34.974 40.806 35.2214 40.972 35.4688 41.1738C35.7227 41.3691 35.9245 41.5938 36.0742 41.8477C36.4193 42.4271 36.5918 43.0423 36.5918 43.6934C36.5918 44.3444 36.5397 44.8783 36.4355 45.2949C36.3379 45.7051 36.1719 46.0924 35.9375 46.457C35.4297 47.2448 34.5378 47.6387 33.2617 47.6387L33.1836 47.8633C33.5938 48.026 33.8672 48.2507 34.0039 48.5371C34.5768 49.7871 35 50.5814 35.2734 50.9199C35.5469 51.252 35.8008 51.5189 36.0352 51.7207C36.2695 51.9225 36.6048 52.1276 37.041 52.3359C37.4772 52.5443 37.7409 52.681 37.832 52.7461C37.9232 52.8047 37.9688 52.8535 37.9688 52.8926C37.9688 53.5436 38.0566 54.3802 38.2324 55.4023C38.4082 56.4245 38.4961 57.082 38.4961 57.375C38.4961 57.668 38.4831 57.8796 38.457 58.0098C38.4375 58.14 38.3887 58.2669 38.3105 58.3906C38.2324 58.5208 38.1185 58.5859 37.9688 58.5859C37.819 58.5859 37.7051 58.4785 37.627 58.2637C37.5553 58.0488 37.5195 57.7852 37.5195 57.4727C37.5195 57.1602 37.5618 56.6003 37.6465 55.793C37.7311 54.9922 37.7734 54.3867 37.7734 53.9766C37.7734 53.1628 37.5098 52.7559 36.9824 52.7559C36.722 52.7559 36.5267 52.8014 36.3965 52.8926C36.2728 52.9837 36.2109 53.1693 36.2109 53.4492C36.2109 53.7357 36.2695 54.1882 36.3867 54.8066C36.5039 55.4251 36.5625 55.8906 36.5625 56.2031C36.5625 56.5221 36.4421 56.6816 36.2012 56.6816C35.9603 56.6816 35.8398 56.5221 35.8398 56.2031ZM29.3359 43.1953L27.0312 43.2637C26.0872 43.2637 25.472 43.1237 25.1855 42.8438L24.9805 43.0293C25.2409 43.2832 25.3711 43.6087 25.3711 44.0059V44.6602C25.3711 45.0508 25.2409 45.3763 24.9805 45.6367L25.1855 45.832C25.4655 45.5456 26.0449 45.4023 26.9238 45.4023L29.3945 45.4902C30.0521 45.4902 30.5599 45.4056 30.918 45.2363C31.2826 45.0605 31.4648 44.7415 31.4648 44.2793C31.4648 43.9863 31.3639 43.7585 31.1621 43.5957C30.9603 43.4264 30.7161 43.319 30.4297 43.2734C30.1432 43.2214 29.7786 43.1953 29.3359 43.1953ZM48.623 54.582L48.6914 53.6445C48.6914 53.4818 48.6133 53.3548 48.457 53.2637C48.3008 53.179 48.1315 53.1367 47.9492 53.1367C47.7669 53.1367 47.6042 53.1855 47.4609 53.2832C47.3177 53.3809 47.2461 53.5208 47.2461 53.7031V55.9492C47.2461 56.2747 47.3145 56.7533 47.4512 57.3848C47.5879 58.0163 47.6562 58.4655 47.6562 58.7324C47.6562 59.0059 47.5977 59.2305 47.4805 59.4062C47.3633 59.582 47.2005 59.6699 46.9922 59.6699C46.7904 59.6699 46.6374 59.5788 46.5332 59.3965C46.429 59.2142 46.377 58.9766 46.377 58.6836C46.377 58.3906 46.4518 57.8828 46.6016 57.1602C46.7513 56.4375 46.8262 55.8776 46.8262 55.4805C46.8262 53.8724 46.5267 53.0684 45.9277 53.0684C45.1204 53.0684 44.7168 53.0358 44.7168 52.9707V52.9902C44.7168 53.4395 44.8145 54.097 45.0098 54.9629C45.2116 55.8353 45.3125 56.4603 45.3125 56.8379C45.3125 57.2155 45.2441 57.5247 45.1074 57.7656C44.9707 58.013 44.7591 58.1367 44.4727 58.1367C44.1927 58.1367 43.9714 58.0195 43.8086 57.7852C43.6523 57.5508 43.5742 57.2448 43.5742 56.8672C43.5742 56.4961 43.6686 55.8548 43.8574 54.9434C44.0462 54.0384 44.1406 53.3516 44.1406 52.8828C42.5977 52.3945 41.4355 51.597 40.6543 50.4902C39.8796 49.3835 39.4922 48.0163 39.4922 46.3887C39.4922 43.0163 41.1914 40.8874 44.5898 40.002C45.6901 39.7155 46.8262 39.5723 47.998 39.5723C49.1764 39.5723 50.1758 39.6374 50.9961 39.7676C51.8229 39.8978 52.6204 40.1289 53.3887 40.4609C54.1634 40.7865 54.821 41.2031 55.3613 41.7109C55.9082 42.2122 56.3444 42.8633 56.6699 43.6641C56.9954 44.4583 57.1582 45.3665 57.1582 46.3887C57.1582 48.472 56.5723 50.0866 55.4004 51.2324C54.2285 52.3717 52.5814 53.0716 50.459 53.332C50.4329 53.3776 50.4199 53.4492 50.4199 53.5469L50.4688 54.084C50.4688 54.416 50.3776 54.582 50.1953 54.582C50.013 54.582 49.9219 54.4225 49.9219 54.1035L49.9512 53.5566C49.9512 53.3613 49.8112 53.2637 49.5312 53.2637C49.5052 53.3223 49.4922 53.4329 49.4922 53.5957L49.541 54.543C49.541 54.7383 49.5052 54.9271 49.4336 55.1094C49.362 55.2917 49.2415 55.3828 49.0723 55.3828C48.7728 55.3828 48.623 55.1159 48.623 54.582ZM44.9316 46.3984C44.9316 48.7812 46.0645 49.9727 48.3301 49.9727C50.5957 49.9727 51.7285 48.7812 51.7285 46.3984C51.7285 45.3047 51.4355 44.4681 50.8496 43.8887C50.2637 43.3092 49.4238 43.0195 48.3301 43.0195C47.2363 43.0195 46.3965 43.3092 45.8105 43.8887C45.2246 44.4681 44.9316 45.3047 44.9316 46.3984ZM64.8828 54.2695L65.0781 55.8125C65.0781 55.9688 65.0488 56.1315 64.9902 56.3008C64.9382 56.4701 64.8503 56.5547 64.7266 56.5547C64.5312 56.5547 64.4336 56.3138 64.4336 55.832C64.4336 55.6302 64.4792 55.3307 64.5703 54.9336C64.6615 54.543 64.707 54.2435 64.707 54.0352C64.707 53.6315 64.4987 53.4036 64.082 53.3516C62.4284 53.1042 61.2109 52.6875 60.4297 52.1016C59.6875 51.5547 59.2253 50.9492 59.043 50.2852C58.8607 49.6146 58.7663 49.0807 58.7598 48.6836C58.7402 47.9609 58.6068 47.4889 58.3594 47.2676L58.4473 47.1699C58.6361 47.3457 58.8053 47.4336 58.9551 47.4336C59.528 47.4336 60.2409 47.3587 61.0938 47.209C61.9531 47.0527 62.5423 46.9583 62.8613 46.9258C63.1868 46.8867 63.4668 46.7207 63.7012 46.4277L63.916 46.5938C63.7077 46.8542 63.6035 47.1504 63.6035 47.4824C63.6035 47.8145 63.6361 48.1302 63.7012 48.4297C63.7728 48.7227 63.8802 48.9961 64.0234 49.25C64.349 49.8164 64.8633 50.0996 65.5664 50.0996C66.276 50.0996 66.8164 49.8945 67.1875 49.4844C67.5586 49.0742 67.7441 48.5143 67.7441 47.8047L67.7539 40.7832C67.7539 40.373 67.6302 40.0475 67.3828 39.8066L67.5781 39.6016C67.8385 39.862 68.1641 39.9922 68.5547 39.9922H71.9531C72.3503 39.9922 72.6758 39.862 72.9297 39.6016L73.125 39.8066C72.8711 40.054 72.7441 40.3796 72.7441 40.7832V48.3809C72.7441 50.5098 71.7708 51.9779 69.8242 52.7852H69.8145V54.9043C69.8145 55.1322 69.8665 55.4674 69.9707 55.9102C70.0814 56.3529 70.1367 56.6849 70.1367 56.9062C70.1367 57.2578 69.9967 57.4336 69.7168 57.4336C69.4759 57.4336 69.3555 57.2969 69.3555 57.0234C69.3555 56.7565 69.3978 56.4212 69.4824 56.0176C69.5671 55.6139 69.6094 55.2689 69.6094 54.9824C69.6094 54.696 69.4727 54.4062 69.1992 54.1133C68.6719 53.5599 67.9883 53.2832 67.1484 53.2832C66.9206 53.2832 66.7448 53.3646 66.6211 53.5273C66.5039 53.6966 66.4453 53.918 66.4453 54.1914C66.4453 54.4648 66.5039 54.8945 66.6211 55.4805C66.7383 56.0729 66.7969 56.4831 66.7969 56.7109C66.7969 57.2122 66.6667 57.4629 66.4062 57.4629C66.263 57.4629 66.1589 57.3848 66.0938 57.2285C66.0286 57.0788 65.9961 56.9225 65.9961 56.7598L66.2305 53.9277C66.2305 53.7129 66.1328 53.5371 65.9375 53.4004C65.7422 53.2702 65.5339 53.2051 65.3125 53.2051C65.026 53.2051 64.8828 53.5599 64.8828 54.2695ZM70.0293 60.5879C70.0293 60.8288 69.9479 60.9492 69.7852 60.9492C69.6224 60.9492 69.541 60.832 69.541 60.5977C69.541 60.0508 69.6224 59.429 69.7852 58.7324C69.9479 59.416 70.0293 60.0345 70.0293 60.5879ZM81.2988 51.3789L81.1426 50.168V50.0605C81.2793 49.8197 81.4648 49.6992 81.6992 49.6992L89.668 49.709C90.0651 49.709 90.3874 49.582 90.6348 49.3281L90.8301 49.5234C90.5436 49.8099 90.4004 50.3568 90.4004 51.1641C90.4004 51.1641 90.4004 51.3529 90.4004 51.7305C90.4004 52.388 90.5436 52.8665 90.8301 53.166L90.6348 53.3613C90.3809 53.1074 90.0586 52.9805 89.668 52.9805H78.1152C77.5358 52.9805 77.1094 53.0911 76.8359 53.3125C76.5234 53.5729 76.3672 54.3086 76.3672 55.5195C76.3672 56.0078 76.4421 56.7272 76.5918 57.6777C76.7415 58.6348 76.8164 59.3542 76.8164 59.8359C76.8164 60.5326 76.569 60.8809 76.0742 60.8809C75.5404 60.8809 75.2734 60.5228 75.2734 59.8066C75.2734 59.3184 75.3809 58.5957 75.5957 57.6387C75.8105 56.6816 75.918 55.9557 75.918 55.4609L75.8691 52.1895V40.8027C75.8691 40.3991 75.7454 40.0768 75.498 39.8359L75.6934 39.6309C75.9603 39.8848 76.2858 40.0117 76.6699 40.0117H89.209C89.6061 40.0117 89.9316 39.8848 90.1855 39.6309L90.3809 39.8359C90.0944 40.1224 89.9512 40.6628 89.9512 41.457V42.0039C89.9512 42.7005 90.0944 43.1888 90.3809 43.4688L90.1855 43.6543C89.86 43.3223 89.0951 43.1562 87.8906 43.1562L83.0371 43.3809C81.8392 43.3809 81.0775 43.2148 80.752 42.8828L80.5469 43.0781C80.8008 43.3255 80.9277 43.6543 80.9277 44.0645C80.9277 44.4681 80.8008 44.7936 80.5469 45.041L80.752 45.2266C81.0645 44.901 81.722 44.7383 82.7246 44.7383L86.8164 44.9629C87.8255 44.9629 88.4928 44.8001 88.8184 44.4746L89.0234 44.6699C88.737 44.9564 88.5938 45.5065 88.5938 46.3203V46.8672C88.5938 47.5378 88.737 48.0228 89.0234 48.3223L88.8184 48.5273C88.5059 48.2018 87.8451 48.0391 86.8359 48.0391L82.7441 48.2539C81.7415 48.2539 81.0775 48.0911 80.752 47.7656L80.5566 47.9609C80.752 48.1562 80.8659 48.3906 80.8984 48.6641C80.931 48.931 80.9505 49.123 80.957 49.2402C80.9635 49.3509 80.9635 49.5267 80.957 49.7676C80.9505 50.002 80.9473 50.1419 80.9473 50.1875L80.7812 51.3594C80.7812 51.5938 80.8659 51.7109 81.0352 51.7109C81.2109 51.7109 81.2988 51.6003 81.2988 51.3789ZM98.5059 57.873L98.6914 53.2344C96.7057 52.9544 95.1758 52.2383 94.1016 51.0859C93.0339 49.9336 92.5 48.3613 92.5 46.3691C92.5 44.2467 93.1966 42.6159 94.5898 41.4766C96.1263 40.207 98.4082 39.5723 101.436 39.5723C106.286 39.5723 108.997 40.9655 109.57 43.752C109.648 44.1556 109.821 44.4648 110.088 44.6797L109.922 44.8945C109.609 44.6602 109.271 44.5592 108.906 44.5918L105.146 44.8262C104.71 44.8587 104.427 45.0182 104.297 45.3047L103.975 45.1484C104.04 45.0052 104.072 44.8815 104.072 44.7773C104.072 44.4388 103.958 44.1458 103.73 43.8984C103.509 43.6445 103.226 43.4557 102.881 43.332C102.21 43.0911 101.559 42.9707 100.928 42.9707C99.9642 42.9707 99.2122 43.2995 98.6719 43.957C98.138 44.6081 97.8711 45.4577 97.8711 46.5059C97.8711 47.5475 98.1738 48.4004 98.7793 49.0645C99.3913 49.722 100.247 50.0508 101.348 50.0508C101.699 50.0508 102.09 49.9661 102.52 49.7969C102.956 49.6211 103.34 49.3704 103.672 49.0449C104.01 48.7194 104.18 48.3743 104.18 48.0098C104.18 47.9056 104.144 47.7754 104.072 47.6191L104.395 47.4531C104.551 47.7461 104.801 47.9056 105.146 47.9316C105.498 47.9577 105.951 47.9935 106.504 48.0391C107.721 48.1497 108.568 48.2051 109.043 48.2051C109.518 48.2051 109.893 48.1042 110.166 47.9023L110.322 48.1074C110.081 48.2897 109.899 48.6283 109.775 49.123C109.658 49.6113 109.427 50.0833 109.082 50.5391C108.737 50.9883 108.346 51.3626 107.91 51.6621C107.48 51.9551 106.979 52.2122 106.406 52.4336C105.423 52.8242 104.346 53.1009 103.174 53.2637C103.174 53.8626 103.252 54.7513 103.408 55.9297C103.564 57.1081 103.643 57.8926 103.643 58.2832C103.643 58.6738 103.594 58.9473 103.496 59.1035C103.405 59.2598 103.268 59.3379 103.086 59.3379C102.904 59.3379 102.764 59.2598 102.666 59.1035C102.568 58.9473 102.52 58.6966 102.52 58.3516C102.52 58.013 102.572 57.3522 102.676 56.3691C102.786 55.3861 102.842 54.7285 102.842 54.3965C102.842 54.0645 102.826 53.8398 102.793 53.7227C102.76 53.6055 102.721 53.5143 102.676 53.4492C102.63 53.3906 102.552 53.3451 102.441 53.3125C102.188 53.2474 101.882 53.2311 101.523 53.2637C100.807 53.3223 100.449 53.4427 100.449 53.625L100.684 56.2812C100.684 56.7044 100.56 56.916 100.312 56.916C100.065 56.916 99.9414 56.737 99.9414 56.3789C99.9414 56.0208 99.9837 55.5456 100.068 54.9531C100.16 54.3607 100.205 53.9342 100.205 53.6738C100.205 53.4199 100.12 53.293 99.9512 53.293C99.6191 53.293 99.3945 53.3288 99.2773 53.4004C99.1667 53.472 99.1113 53.5371 99.1113 53.5957L99.2188 57.8242C99.2188 57.9349 99.1829 58.0326 99.1113 58.1172C99.0397 58.2083 98.9518 58.2539 98.8477 58.2539C98.7435 58.2539 98.6589 58.2148 98.5938 58.1367C98.5352 58.0651 98.5059 57.9772 98.5059 57.873ZM111.699 42.5215L111.748 41.2715C111.748 40.5553 111.608 40.0605 111.328 39.7871L111.523 39.5918C111.784 39.8457 112.106 39.9727 112.49 39.9727H125.312C125.71 39.9727 126.035 39.8457 126.289 39.5918L126.484 39.7871C126.237 40.0345 126.113 40.36 126.113 40.7637L126.064 42.0137C126.064 42.7168 126.204 43.2083 126.484 43.4883L126.289 43.6934C125.996 43.3939 125.521 43.2441 124.863 43.2441L122.705 43.3809C122.021 43.3809 121.53 43.2311 121.23 42.9316L121.025 43.127C121.279 43.3743 121.406 43.6999 121.406 44.1035V52.209C121.406 52.8861 121.465 53.8952 121.582 55.2363C121.706 56.5775 121.768 57.4596 121.768 57.8828C121.768 58.625 121.634 58.9961 121.367 58.9961C121.1 58.9961 120.967 58.7324 120.967 58.2051C120.967 57.6777 121.009 56.9616 121.094 56.0566C121.185 55.1582 121.23 54.4811 121.23 54.0254C121.23 53.3158 121.09 52.9609 120.811 52.9609C120.674 52.9609 120.566 53.0423 120.488 53.2051C120.41 53.3678 120.371 53.5273 120.371 53.6836L120.596 55.7246C120.596 56.1934 120.462 56.4277 120.195 56.4277C120.059 56.4277 119.958 56.3594 119.893 56.2227C119.827 56.0859 119.795 55.9264 119.795 55.7441C119.795 55.5618 119.854 55.2624 119.971 54.8457C120.088 54.4355 120.146 54.1003 120.146 53.8398C120.146 53.5794 120.033 53.3809 119.805 53.2441C119.583 53.1074 119.3 53.0391 118.955 53.0391C118.617 53.0391 118.262 53.1074 117.891 53.2441C117.526 53.3809 117.204 53.5924 116.924 53.8789C116.644 54.1719 116.504 54.4583 116.504 54.7383C116.504 55.0247 116.546 55.3698 116.631 55.7734C116.722 56.1771 116.768 56.5124 116.768 56.7793C116.768 57.0527 116.647 57.1895 116.406 57.1895C116.133 57.1895 115.996 57.043 115.996 56.75C115.996 56.4635 116.048 56.099 116.152 55.6562C116.257 55.2135 116.309 54.8815 116.309 54.6602V52.1211C116.322 48.5534 116.328 45.8809 116.328 44.1035C116.328 43.6934 116.452 43.3678 116.699 43.127L116.504 42.9316C116.217 43.2246 115.742 43.3711 115.078 43.3711L112.979 43.2441C112.308 43.2441 111.823 43.3939 111.523 43.6934L111.328 43.4883C111.576 43.2409 111.699 42.9186 111.699 42.5215ZM120.117 57.9023C120.273 58.6185 120.352 59.2402 120.352 59.7676C120.352 59.9954 120.27 60.1094 120.107 60.1094C119.945 60.1094 119.863 60.0052 119.863 59.7969C119.863 59.2109 119.948 58.5794 120.117 57.9023Z" fill="#34A4E2"/>
<path d="M44.145 28.475L45.265 30.19C44.1217 34.2033 41.7533 36.21 38.16 36.21C37.3433 36.21 36.6317 36.0583 36.025 35.755C35.4417 35.4517 34.9983 35.09 34.695 34.67C34.3917 34.25 34.1467 33.7133 33.96 33.06C33.7033 32.08 33.5633 30.785 33.54 29.175C33.54 27.565 33.3417 26.4567 32.945 25.85C32.5717 25.2433 31.8483 24.905 30.775 24.835L31.16 21.86C31.2067 21.86 31.2417 21.86 31.265 21.86C32.6183 21.86 33.7383 21.475 34.625 20.705C35.5817 19.8417 36.06 18.7333 36.06 17.38C36.06 16.0267 35.4183 14.8833 34.135 13.95C32.875 13.0167 31.2417 12.55 29.235 12.55C26.645 12.55 24.65 13.1917 23.25 14.475C22.5033 15.175 22.13 16.015 22.13 16.995C22.13 18.2317 23.075 18.9783 24.965 19.235L24.475 21.86C23.0517 21.79 21.7917 21.3117 20.695 20.425C19.5983 19.5383 19.05 18.395 19.05 16.995C19.05 14.545 20.0767 12.6667 22.13 11.36C24.1833 10.03 26.785 9.365 29.935 9.365C31.965 9.365 33.75 9.61 35.29 10.1C37.9267 10.9867 39.6767 12.5267 40.54 14.72C40.82 15.49 40.96 16.12 40.96 16.61C40.96 17.0767 40.96 17.3917 40.96 17.555C40.8667 18.8383 40.3883 20.0983 39.525 21.335C38.685 22.5717 37.4133 23.4233 35.71 23.89C36.7367 24.1 37.4367 24.5433 37.81 25.22C38.1833 25.8967 38.3817 26.9233 38.405 28.3C38.4283 30.6567 38.5333 32.0917 38.72 32.605C38.93 33.095 39.35 33.34 39.98 33.34C41.6833 33.34 43.0717 31.7183 44.145 28.475ZM22.69 36.21C21.4533 36.21 20.4617 35.8367 19.715 35.09C18.9683 34.3433 18.595 33.4217 18.595 32.325C18.595 29.4783 20.6833 27.0983 24.86 25.185C25.7 18.6517 26.1317 15.3033 26.155 15.14C27.135 14.51 28.2433 14.195 29.48 14.195C29.9933 14.195 30.5767 14.265 31.23 14.405L29.025 29.35C28.325 33.9233 26.2133 36.21 22.69 36.21ZM21.185 31.905C21.185 32.6517 21.5817 33.025 22.375 33.025C23.3083 33.025 23.9033 32.185 24.16 30.505L24.475 28.125C22.2817 29.4083 21.185 30.6683 21.185 31.905ZM49.0781 28.16C50.5248 27.8567 51.5981 27.2733 52.2981 26.41C53.0214 25.5467 53.3831 24.7183 53.3831 23.925C53.3831 23.1083 53.1614 22.56 52.7181 22.28C52.2981 21.9767 51.8314 21.825 51.3181 21.825C50.2214 21.825 49.2531 22.4433 48.4131 23.68C47.5964 24.8933 47.1881 26.3517 47.1881 28.055C47.1881 29.735 47.5848 30.995 48.3781 31.835C49.1948 32.6517 50.1981 33.06 51.3881 33.06C53.1381 33.06 54.8181 32.4533 56.4281 31.24C58.0381 30.0267 59.3448 28.44 60.3481 26.48C60.8614 26.97 61.3281 27.5767 61.7481 28.3C60.9781 30.05 59.6131 31.765 57.6531 33.445C56.6731 34.2617 55.5064 34.9267 54.1531 35.44C52.8231 35.9533 51.4464 36.21 50.0231 36.21C47.6898 36.21 45.8464 35.4983 44.4931 34.075C43.0464 32.535 42.3231 30.5633 42.3231 28.16C42.3231 25.7567 43.2214 23.6567 45.0181 21.86C46.8381 20.0633 49.0081 19.165 51.5281 19.165C53.3248 19.165 54.7831 19.5617 55.9031 20.355C57.0231 21.125 57.5948 22.175 57.6181 23.505C57.6181 25.3017 56.8948 26.76 55.4481 27.88C54.0248 29 52.0648 29.7817 49.5681 30.225L49.0781 28.16ZM74.4468 36.175C72.3001 36.175 70.8768 35.4283 70.1768 33.935C68.9635 35.4517 67.4001 36.21 65.4868 36.21C63.5968 36.21 61.9985 35.5683 60.6918 34.285C59.4085 33.0017 58.7668 31.31 58.7668 29.21C58.7668 26.1533 59.6651 23.715 61.4618 21.895C63.2585 20.075 65.5335 19.165 68.2868 19.165C68.3568 19.165 68.4268 19.165 68.4968 19.165C69.6635 19.165 70.7368 19.3633 71.7168 19.76C72.3468 19.3633 73.1051 19.165 73.9918 19.165C74.9018 19.165 75.5551 19.2817 75.9518 19.515C75.7418 21.2417 75.5201 22.945 75.2868 24.625C75.0535 26.2817 74.8901 27.46 74.7968 28.16C74.5868 29.7467 74.4818 30.89 74.4818 31.59C74.4818 32.5233 74.8551 32.99 75.6018 32.99C76.1851 32.99 76.8035 32.605 77.4568 31.835C78.1101 31.0417 78.6818 29.805 79.1718 28.125C79.8485 28.7317 80.3151 29.4083 80.5718 30.155C79.8951 32.3717 78.9851 33.935 77.8418 34.845C76.6985 35.7317 75.5668 36.175 74.4468 36.175ZM68.8118 21.895C67.3185 21.895 66.1285 22.4667 65.2418 23.61C64.3785 24.73 63.8651 26.41 63.7018 28.65C63.6785 28.86 63.6668 29.0583 63.6668 29.245C63.6668 30.3883 63.9351 31.2983 64.4718 31.975C65.0318 32.6517 65.7435 32.99 66.6068 32.99C68.0768 32.99 69.1851 31.9517 69.9318 29.875L70.7718 22.315C70.0951 22.035 69.4418 21.895 68.8118 21.895ZM89.0016 24.135C89.0016 22.6183 88.3249 21.86 86.9716 21.86C85.9683 21.86 85.0699 22.4317 84.2766 23.575C83.4366 24.8117 83.0166 26.2583 83.0166 27.915C83.0166 29.5717 83.3783 30.855 84.1016 31.765C84.8483 32.6517 85.8633 33.095 87.1466 33.095C88.6866 33.095 90.3083 32.465 92.0116 31.205C93.7383 29.945 95.1266 28.3817 96.1766 26.515C96.6433 26.865 97.0983 27.5067 97.5416 28.44C96.8649 29.7933 95.6049 31.31 93.7616 32.99C92.8049 33.8767 91.6149 34.6233 90.1916 35.23C88.6516 35.8833 87.1116 36.21 85.5716 36.21C83.4949 36.21 81.7333 35.4983 80.2866 34.075C78.8633 32.6517 78.1516 30.7967 78.1516 28.51C78.1516 25.7333 79.0849 23.4817 80.9516 21.755C82.8183 20.0283 84.9066 19.165 87.2166 19.165C89.0133 19.165 90.4366 19.5383 91.4866 20.285C92.5366 21.0317 93.0616 22.0117 93.0616 23.225C93.0616 24.0183 92.7816 24.7067 92.2216 25.29C91.1949 26.3167 89.9466 26.83 88.4766 26.83C88.8266 25.6633 89.0016 24.765 89.0016 24.135ZM102.363 11.64C102.363 11.78 102.048 14.2883 101.418 19.165H106.563V21.86H101.068L100.963 22.735C103.693 25.0217 105.058 27.5183 105.058 30.225C105.058 32.3483 104.51 33.8767 103.413 34.81C102.34 35.7433 101.045 36.21 99.5279 36.21C98.0112 36.21 96.9029 35.8133 96.2029 35.02C95.5029 34.2033 95.1529 33.2233 95.1529 32.08C95.1529 31.8233 95.1762 31.5433 95.2229 31.24L96.3079 21.93L96.1679 21.86H93.3329C93.3095 21.6267 93.2979 21.2533 93.2979 20.74C93.2979 20.2033 93.4029 19.6783 93.6129 19.165H96.6229L97.7429 9.645C98.2329 9.45833 98.8862 9.365 99.7029 9.365C101.476 9.365 102.363 10.1233 102.363 11.64ZM102.713 30.19C102.713 28.58 102.013 26.9933 100.613 25.43C100.193 28.9067 99.9829 30.9133 99.9829 31.45C99.9829 32.5 100.321 33.025 100.998 33.025C101.488 33.025 101.896 32.8033 102.223 32.36C102.55 31.8933 102.713 31.17 102.713 30.19Z" fill="#063479" fill-opacity="0.97"/>
</svg>
